<svg version="1.1" id="Layer_1" xmlns="http://www.w3.org/2000/svg" xmlns:xlink="http://www.w3.org/1999/xlink" x="0px" y="0px"
	 width="54px" height="52px" viewBox="0 0 54 52" enable-background="new 0 0 54 52" xml:space="preserve">
<g>
	<g>
		<path fill="#FFFFFF" d="M22.863,22.365c-1.331,0-2.529-0.737-3.127-1.925c-0.867-1.724-0.173-3.831,1.551-4.7
			c0.487-0.244,1.031-0.374,1.571-0.374c1.331,0,2.529,0.738,3.129,1.923c0.869,1.725,0.173,3.834-1.55,4.7
			C23.951,22.236,23.404,22.365,22.863,22.365 M18.756,29.518c-0.068,0-0.134-0.002-0.203-0.004
			c-1.923-0.112-3.403-1.769-3.293-3.694c0.108-1.919,1.753-3.41,3.691-3.294c1.927,0.106,3.404,1.765,3.296,3.691
			C22.143,28.069,20.607,29.518,18.756,29.518 M22.89,36.65c-0.681,0-1.345-0.197-1.916-0.572c-0.781-0.512-1.316-1.298-1.506-2.214
			c-0.191-0.915-0.015-1.85,0.499-2.631c0.649-0.988,1.744-1.582,2.93-1.582c0.68,0,1.345,0.2,1.914,0.574
			c0.784,0.513,1.319,1.297,1.508,2.215c0.192,0.914,0.015,1.848-0.499,2.63C25.171,36.061,24.077,36.65,22.89,36.65 M31.143,36.633
			c-1.329,0-2.526-0.738-3.127-1.926c-0.42-0.833-0.488-1.78-0.197-2.668c0.292-0.89,0.915-1.607,1.748-2.029
			c0.486-0.247,1.032-0.377,1.574-0.377c1.33,0,2.527,0.738,3.127,1.927c0.867,1.723,0.17,3.83-1.552,4.7
			C32.232,36.503,31.687,36.633,31.143,36.633 M35.254,29.481c-0.069,0-0.135-0.004-0.201-0.006
			c-1.929-0.108-3.406-1.767-3.297-3.691c0.109-1.92,1.755-3.409,3.693-3.296c0.935,0.053,1.789,0.464,2.413,1.163
			c0.623,0.696,0.934,1.597,0.88,2.529C38.639,28.031,37.104,29.481,35.254,29.481 M31.106,22.348c-0.68,0-1.341-0.197-1.914-0.572
			c-1.616-1.062-2.065-3.233-1.009-4.848c0.649-0.987,1.745-1.578,2.929-1.578c0.684,0,1.345,0.198,1.917,0.571
			c1.613,1.058,2.065,3.231,1.008,4.846C33.388,21.755,32.294,22.348,31.106,22.348 M19.362,9.356
			c0.434,0.862,0.086,1.915-0.773,2.35c-0.863,0.434-1.914,0.086-2.349-0.773c-0.436-0.863-0.089-1.914,0.772-2.35
			C17.875,8.15,18.927,8.495,19.362,9.356 M8.769,24.293c0.965,0.056,1.702,0.882,1.647,1.846c-0.056,0.966-0.882,1.703-1.846,1.646
			c-0.963-0.055-1.701-0.88-1.646-1.847C6.979,24.978,7.806,24.24,8.769,24.293 M16.41,40.937c0.529-0.808,1.611-1.032,2.419-0.503
			c0.809,0.528,1.034,1.612,0.503,2.421c-0.528,0.807-1.613,1.031-2.422,0.504C16.104,42.825,15.881,41.745,16.41,40.937
			 M34.643,42.64c-0.437-0.861-0.088-1.911,0.772-2.345c0.865-0.436,1.915-0.088,2.348,0.771c0.436,0.862,0.087,1.916-0.773,2.348
			C36.129,43.851,35.077,43.505,34.643,42.64 M45.233,27.704c-0.967-0.054-1.702-0.881-1.646-1.843
			c0.054-0.967,0.88-1.703,1.845-1.646c0.964,0.053,1.701,0.88,1.647,1.846C47.026,27.022,46.195,27.759,45.233,27.704
			 M37.595,11.062c-0.529,0.808-1.613,1.032-2.42,0.504c-0.808-0.528-1.034-1.614-0.504-2.421c0.529-0.81,1.613-1.032,2.42-0.504
			C37.897,9.172,38.125,10.255,37.595,11.062 M15.538,3.995c0.282,0.558,0.055,1.238-0.501,1.52
			c-0.559,0.281-1.237,0.057-1.521-0.502c-0.28-0.557-0.056-1.239,0.501-1.518C14.577,3.213,15.256,3.438,15.538,3.995
			 M2.212,24.926c0.626,0.035,1.101,0.568,1.067,1.192c-0.037,0.623-0.572,1.102-1.194,1.063c-0.625-0.032-1.102-0.569-1.065-1.192
			C1.057,25.367,1.589,24.89,2.212,24.926 M13.676,46.929c0.342-0.523,1.046-0.671,1.569-0.325c0.521,0.343,0.666,1.042,0.321,1.567
			c-0.339,0.521-1.042,0.669-1.565,0.325C13.479,48.152,13.336,47.451,13.676,46.929 M38.466,48.006
			c-0.281-0.561-0.058-1.241,0.502-1.521c0.558-0.281,1.237-0.058,1.516,0.5c0.285,0.559,0.058,1.239-0.498,1.519
			C39.428,48.786,38.746,48.562,38.466,48.006 M51.789,27.075c-0.623-0.035-1.102-0.57-1.065-1.195
			c0.038-0.624,0.569-1.101,1.195-1.063c0.623,0.033,1.1,0.57,1.062,1.192C52.946,26.632,52.413,27.108,51.789,27.075 M40.328,5.068
			c-0.345,0.523-1.046,0.67-1.567,0.327c-0.522-0.344-0.668-1.044-0.327-1.567C38.776,3.307,39.478,3.16,40,3.504
			C40.521,3.846,40.669,4.547,40.328,5.068 M15.881,17.244c0.949,0.622,1.214,1.897,0.59,2.846
			c-0.621,0.951-1.896,1.217-2.848,0.593c-0.949-0.623-1.215-1.896-0.59-2.847C13.655,16.888,14.931,16.621,15.881,17.244
			 M13.855,31.254c1.016-0.512,2.253-0.104,2.766,0.911c0.509,1.015,0.104,2.252-0.913,2.763c-1.013,0.511-2.252,0.101-2.762-0.912
			C12.437,33.002,12.843,31.764,13.855,31.254 M24.83,40.01c0.065-1.135,1.038-2,2.171-1.938c1.137,0.063,2.004,1.039,1.938,2.17
			c-0.063,1.136-1.035,2.003-2.171,1.937C25.634,42.115,24.766,41.143,24.83,40.01 M38.125,34.758
			c-0.95-0.626-1.218-1.9-0.596-2.851c0.625-0.947,1.9-1.213,2.849-0.591c0.95,0.622,1.216,1.897,0.594,2.847
			C40.349,35.115,39.071,35.379,38.125,34.758 M40.145,20.746c-1.014,0.511-2.251,0.104-2.761-0.911
			c-0.51-1.014-0.105-2.25,0.91-2.763c1.017-0.511,2.251-0.103,2.766,0.912C41.567,18.998,41.161,20.234,40.145,20.746
			 M29.026,11.989c-0.063,1.134-1.038,2.002-2.174,1.937c-1.134-0.064-2.001-1.036-1.937-2.17s1.037-2.002,2.171-1.938
			C28.222,9.883,29.088,10.854,29.026,11.989 M8.221,13.555c0.665,0.435,0.85,1.328,0.414,1.993C8.2,16.211,7.307,16.4,6.643,15.962
			c-0.665-0.437-0.852-1.331-0.415-1.993C6.665,13.305,7.555,13.116,8.221,13.555 M6.833,36.041
			c0.711-0.357,1.576-0.072,1.935,0.638c0.357,0.709,0.071,1.576-0.638,1.935c-0.711,0.355-1.577,0.071-1.935-0.638
			S6.123,36.398,6.833,36.041 M25.466,48.487c0.045-0.796,0.726-1.401,1.52-1.356s1.399,0.726,1.355,1.519
			c-0.043,0.795-0.727,1.402-1.52,1.358C26.025,49.962,25.42,49.281,25.466,48.487 M45.781,38.443
			c-0.664-0.433-0.851-1.328-0.415-1.993c0.438-0.663,1.331-0.851,1.996-0.413c0.664,0.437,0.847,1.329,0.415,1.992
			C47.339,38.694,46.446,38.881,45.781,38.443 M47.169,15.96c-0.707,0.355-1.575,0.069-1.934-0.641
			c-0.357-0.71-0.072-1.573,0.639-1.933c0.71-0.357,1.574-0.074,1.933,0.637C48.163,14.734,47.879,15.601,47.169,15.96
			 M28.389,3.512c-0.043,0.795-0.725,1.401-1.519,1.356c-0.793-0.045-1.401-0.726-1.356-1.519c0.046-0.796,0.726-1.402,1.52-1.357
			C27.829,2.036,28.435,2.719,28.389,3.512"/>
	</g>
</g>
</svg>
